<?xml version="1.0" standalone="no"?>
<!DOCTYPE svg PUBLIC "-//W3C//DTD SVG 20010904//EN"
 "http://www.w3.org/TR/2001/REC-SVG-20010904/DTD/svg10.dtd">
<svg version="1.0" xmlns="http://www.w3.org/2000/svg"
 width="500.000000pt" height="500.000000pt" viewBox="0 0 500.000000 500.000000"
 preserveAspectRatio="xMidYMid meet">
<metadata>
Created by potrace 1.11, written by Peter Selinger 2001-2013
</metadata>
<g transform="translate(0.000000,500.000000) scale(0.100000,-0.100000)"
fill="#000000" stroke="none">
<path d="M870 4993 c-380 -62 -678 -303 -808 -653 -12 -30 -26 -73 -31 -95 -6
-22 -14 -53 -18 -70 -4 -16 -9 -761 -10 -1655 -2 -1562 -2 -1628 16 -1710 46
-205 131 -367 264 -504 52 -53 150 -136 160 -136 3 0 25 -13 49 -28 60 -39
167 -85 268 -113 l85 -24 1630 0 c897 0 1650 3 1675 6 198 28 408 135 555 284
141 142 230 306 275 511 19 86 19 135 19 1689 0 1715 2 1655 -49 1812 -109
338 -401 599 -750 672 -92 19 -138 19 -1700 19 -883 -1 -1616 -3 -1630 -5z"/>
</g>
</svg>
